<svg version="1.2" baseProfile="tiny-ps" xmlns="http://www.w3.org/2000/svg" viewBox="0 0 1299 1021" width="1400" height="1100">
	<title>statistics-svg</title>
	<defs>
		<clipPath clipPathUnits="userSpaceOnUse" id="cp1">
			<path d="" />
		</clipPath>
		<clipPath clipPathUnits="userSpaceOnUse" id="cp2">
			<path d="M0 0L1299 0L1299 1021L0 1021L0 0Z" />
		</clipPath>
		<clipPath clipPathUnits="userSpaceOnUse" id="cp3">
			<path d="" />
		</clipPath>
		<clipPath clipPathUnits="userSpaceOnUse" id="cp4">
			<path d="M0 0L1299 0L1299 1021L0 1021L0 0Z" />
		</clipPath>
		<clipPath clipPathUnits="userSpaceOnUse" id="cp5">
			<path d="" />
		</clipPath>
		<clipPath clipPathUnits="userSpaceOnUse" id="cp6">
			<path d="M0 0L1299 0L1299 1021L0 1021L0 0Z" />
		</clipPath>
	</defs>
	<style>
		tspan { white-space:pre }
		.shp0 { fill: #f0f0f0 } 
		.shp1 { fill: #3f3d56 } 
		.shp2 { fill: #2ba513 } 
		.shp3 { fill: #ffb6b6 } 
		.shp4 { fill: #2f2e41 } 
		.shp5 { fill: #000000 } 
		.shp6 { fill: #cacaca } 
	</style>
	<g id="surface1">
		<path id="Layer" class="shp0" d="M908.05 542.87C907.3 571.01 902.59 598.9 894.06 625.71C893.87 626.34 893.66 626.95 893.46 627.57L841.24 627.57C841.3 627.01 841.35 626.39 841.41 625.71C844.89 585.67 825 344.84 801 303.16C803.1 306.54 912.1 415.63 908.05 542.87Z" />
		<path id="Layer" class="shp0" d="M877.26 625.04C876.66 625.89 876.04 626.74 875.41 627.57L821.98 627.57C822.39 626.85 822.86 626 823.4 625.04C832.23 609.1 858.35 561.45 882.6 512.05C908.65 458.97 932.57 403.87 930.55 383.92C931.18 388.42 949.21 525.53 877.26 625.04Z" />
		<path id="Layer" class="shp1" d="M1263.53 1020.2L330.67 1020.2C310.9 1020.18 294.88 1004.15 294.86 984.36L294.86 532C294.88 512.22 310.9 496.19 330.67 496.16L1263.53 496.16C1283.3 496.19 1299.33 512.22 1299.35 532L1299.35 984.36C1299.33 1004.15 1283.3 1020.18 1263.53 1020.2Z" />
		<path id="Layer" class="shp0" d="M446.95 756.59L1145.48 756.59L1145.48 759.78L446.95 759.78L446.95 756.59Z" />
		<path id="Layer" class="shp0" d="M446.95 820.3L1145.48 820.3L1145.48 823.49L446.95 823.49L446.95 820.3Z" />
		<path id="Layer" class="shp0" d="M446.95 884.02L1145.48 884.02L1145.48 887.2L446.95 887.2L446.95 884.02Z" />
		<g id="Clip-Path" clip-path="url(#cp1)">
			<g id="Clip-Path: surface5" clip-path="url(#cp2)">
				<g id="surface5">
					<path id="Layer" class="shp2" d="M1144.9 730.65C1124.16 708.21 1089.52 704 1059.75 710.8C1029.98 717.6 1003.25 733.51 975.56 746.41C947.88 759.32 917.14 769.49 887.15 763.72C858.2 758.15 834.27 738.66 809.43 722.75C784.6 706.85 754.34 693.74 726.25 702.74C691.49 713.88 675.47 752.82 650.5 779.46C624.37 807.34 587.2 822.13 549.07 819.83C510.95 817.54 475.82 798.38 453.23 767.56L453.23 886.61L1143.08 886.61L1144.9 730.65Z" />
				</g>
			</g>
		</g>
		<path id="Layer" class="shp0" d="M446.95 629.16L1145.48 629.16L1145.48 632.35L446.95 632.35L446.95 629.16Z" />
		<path id="Layer" class="shp0" d="M446.95 692.88L1145.48 692.88L1145.48 696.06L446.95 696.06L446.95 692.88Z" />
		<path id="Layer" class="shp2" d="M451.16 768.77C480.92 808.98 532.36 829.63 581.57 819.95C606.34 815.07 629.21 803.25 647.52 785.86C664.05 770.04 675.41 749.89 690.06 732.48C697.15 724.05 705.09 716.16 714.64 710.55C725.57 704.21 738.17 701.37 750.76 702.39C778.92 704.43 803.11 721.24 825.8 736.49C847.86 751.31 871.07 765.71 898.27 767.54C926.89 769.47 954.72 758.97 980.13 746.89C1006.14 734.54 1031.49 719.82 1059.78 713.24C1082.83 707.88 1109.05 708.9 1129.73 721.38C1134.71 724.4 1139.24 728.09 1143.21 732.34C1145.32 734.58 1148.7 731.2 1146.59 728.96C1130.61 711.95 1107.09 705.14 1084.25 705.46C1057.61 705.82 1032.6 716.04 1008.94 727.44C982.64 740.12 956.81 754.68 927.91 760.56C913.58 763.72 898.73 763.77 884.38 760.69C871.21 757.64 859 751.66 847.45 744.75C824.22 730.86 803.21 713.29 777.59 703.73C754.04 694.96 728.3 694.81 707.19 709.68C689.02 722.48 676.92 741.82 663.87 759.38C657.12 768.84 649.43 777.58 640.9 785.48C631.11 794.14 620.04 801.26 608.1 806.57C584.47 817.2 558.13 820.25 532.7 815.3C508.05 810.3 485.39 798.2 467.51 780.49C463.08 776.1 459 771.37 455.29 766.36C453.48 763.91 449.33 766.29 451.16 768.77Z" />
		<path id="Layer" class="shp2" d="M762.49 701.29C762.49 710.09 755.36 717.22 746.57 717.22C737.78 717.22 730.65 710.09 730.65 701.29C730.65 692.49 737.78 685.36 746.57 685.36C755.36 685.36 762.49 692.49 762.49 701.29Z" />
		<path id="Layer" class="shp2" d="M1096.79 706.07C1096.79 714.86 1089.66 722 1080.87 722C1072.08 722 1064.95 714.86 1064.95 706.07C1064.95 697.27 1072.08 690.14 1080.87 690.14C1089.66 690.14 1096.79 697.27 1096.79 706.07Z" />
		<path id="Layer" class="shp2" d="M582.6 819.16C582.6 827.95 575.47 835.09 566.68 835.09C557.89 835.09 550.76 827.95 550.76 819.16C550.76 810.36 557.89 803.23 566.68 803.23C575.47 803.23 582.6 810.36 582.6 819.16Z" />
		<path id="Layer" class="shp3" d="M224.93 340.06C220.85 341.76 217.73 345.18 216.41 349.4C215.1 353.62 215.72 358.2 218.11 361.92L172.98 426.42L187.14 442.4L239.71 365.96C245.82 361.43 247.59 353.04 243.82 346.44C240.04 339.83 231.93 337.09 224.93 340.06Z" />
		<path id="Layer" class="shp3" d="M258.46 998.91L238.95 998.91L229.66 923.59L258.46 923.59L258.46 998.91Z" />
		<path id="Layer" class="shp4" d="M263.44 1017.84L200.51 1017.84L200.51 1017.05C200.51 1003.51 211.48 992.54 225 992.54L263.44 992.54L263.44 1017.84Z" />
		<g id="Clip-Path" clip-path="url(#cp3)">
			<g id="Clip-Path: surface8" clip-path="url(#cp4)">
				<g id="surface8">
					<path id="Layer" class="shp5" d="M33.38 1011.26L31.79 1010.89L33.38 1011.26Z" />
				</g>
			</g>
		</g>
		<g id="Clip-Path" clip-path="url(#cp5)">
			<g id="Clip-Path: surface11" clip-path="url(#cp6)">
				<g id="surface11">
					<path id="Layer" class="shp5" d="M34.43 1011.47L33.65 1011.36L34.51 1011.52L34.43 1011.47Z" />
				</g>
			</g>
		</g>
		<path id="Layer" class="shp6" d="M208.57 721.55L228.93 978.61L263.52 978.61L273.06 721.55L208.57 721.55Z" />
		<path id="Layer" class="shp6" d="M262.7 455.14L248.91 448.18L201.54 445.09L206.52 421.41L169.14 421.41L154.74 471.1L242.25 487.23L262.7 455.14Z" />
		<path id="Layer" class="shp4" d="M334.04 378.92C334.04 404.38 313.41 425.02 287.97 425.02C262.52 425.02 241.9 404.38 241.9 378.92C241.9 353.46 262.52 332.82 287.97 332.82C313.41 332.82 334.04 353.46 334.04 378.92Z" />
		<path id="Layer" class="shp4" d="M255.38 330.46C249.79 324.88 239.23 326.39 231.79 333.83C224.34 341.28 222.83 351.85 228.42 357.44C234 363.02 244.56 361.52 252.01 354.07C259.45 346.62 260.96 336.05 255.38 330.46Z" />
		<path id="Layer" class="shp4" d="M324.07 318.78C314.39 314.64 304.02 317.18 300.92 324.44C297.82 331.71 303.16 340.95 312.84 345.09C322.52 349.23 332.88 346.69 335.98 339.43C339.09 332.16 333.75 322.92 324.07 318.78Z" />
		<path id="Layer" class="shp3" d="M328.53 389.92C328.53 411.53 311.02 429.04 289.43 429.04C267.84 429.04 250.33 411.53 250.33 389.92C250.33 368.32 267.84 350.8 289.43 350.8C311.02 350.8 328.53 368.32 328.53 389.92Z" />
		<path id="Layer" class="shp4" d="M248.34 365.32C257.28 371.48 267.88 374.76 278.73 374.71C274.86 377.4 270.46 379.21 265.82 380.03C280.25 383.13 295.16 383.21 309.62 380.28C312.83 379.76 315.93 378.7 318.79 377.13C321.66 375.52 323.72 372.77 324.45 369.55C325.41 364.06 321.13 359.07 316.68 355.71C302.9 345.44 285.24 341.91 268.57 346.09C263.2 347.48 257.81 349.82 254.32 354.14C250.83 358.46 249.8 365.12 253.12 369.57L248.34 365.32Z" />
		<path id="Layer" class="shp3" d="M238.35 851.3L227.91 867.8L159.33 835.38L174.73 811.02L238.35 851.3Z" />
		<path id="Layer" class="shp4" d="M257 857.21L223.35 910.42L222.68 909.99C211.24 902.75 207.84 887.62 215.07 876.18L235.63 843.68L257 857.21Z" />
		<path id="Layer" class="shp6" d="M341.3 434.36L248.91 448.18L233.04 484.86C233.04 484.86 197.68 501.23 221.2 540.51L193.78 639.99C193.78 639.99 65.54 705.09 67.97 748.76C70.39 792.43 201.77 864.26 201.77 864.26L220.19 834.45L144.29 759.23L215.35 736.59L271.4 739.24C271.4 739.24 332.3 691.59 296.07 612.2L321.05 538.92L341.3 434.36Z" />
		<path id="Layer" class="shp3" d="M273.34 660.14C277.75 659.97 281.86 657.86 284.57 654.37C287.28 650.88 288.3 646.36 287.37 642.04L352.18 597.41L344.51 577.49L268.53 630.7C261.22 632.8 256.64 640.05 257.87 647.55C259.09 655.06 265.74 660.47 273.34 660.14Z" />
		<path id="Layer" class="shp6" d="M320.74 449.3L339.71 434.36C339.71 434.36 364.84 453.39 364.87 467.61C364.9 481.83 369.07 594.69 369.07 594.69L335.19 618.97L303.51 599.74L325.29 571.94L315.02 507.09L320.74 449.3Z" />
		<path id="Layer" class="shp1" d="M608.11 1019.41L1.59 1019.41C0.71 1019.41 0 1018.7 0 1017.81C0 1016.93 0.71 1016.22 1.59 1016.22L608.11 1016.22C608.99 1016.22 609.7 1016.93 609.7 1017.81C609.7 1018.7 608.99 1019.41 608.11 1019.41Z" />
	</g>
</svg>